<svg xmlns="http://www.w3.org/2000/svg" width="172" height="43.555" viewBox="0 0 172 43.555"><text transform="translate(53 31.555)" fill="#888c95" font-size="30" font-family="Rubik-Bold, Rubik" font-weight="700" letter-spacing="0.12em"><tspan x="0" y="0">HTML5</tspan></text><g opacity="0.5"><path d="M78.094,139.814,74.6,100.6h38.409l-3.494,39.193-15.743,4.362" transform="translate(-74.6 -100.6)" fill="#e5e5e5"/><path d="M256,167.962V131h15.795l-3.014,33.419" transform="translate(-236.911 -127.762)" fill="#fff"/><path d="M142,176.3h12.142v4.789H147.3l.447,4.905h6.39v4.779H143.321m.213,2.405h4.857l.341,3.829,5.411,1.435v5l-9.926-2.743" transform="translate(-134.884 -168.237)"/><path d="M267.921,176.3H255.8v4.789h11.673m-.437,4.905H255.8v4.789h5.964l-.564,6.224-5.4,1.435v4.979l9.905-2.722" transform="translate(-236.669 -168.237)"/></g></svg>